<?xml version="1.0" standalone="no"?><!DOCTYPE svg PUBLIC "-//W3C//DTD SVG 1.1//EN" "http://www.w3.org/Graphics/SVG/1.1/DTD/svg11.dtd"><svg t="1526538042542" class="icon" style="" viewBox="0 0 1024 1024" version="1.1" xmlns="http://www.w3.org/2000/svg" p-id="3109" xmlns:xlink="http://www.w3.org/1999/xlink" width="200" height="200"><defs><style type="text/css"></style></defs><path d="M357.056604 511.98465l375.618866-381.879453c12.520151-12.522198 12.522198-31.301913 0-43.822065-12.521175-12.520151-31.30089-12.520151-43.821041 0l-0.771573 0.77055-2.257414 2.258436-3.664459 3.66446-4.990664 4.990664-6.237052 6.237051-7.40362 7.403621-8.490372 8.490371-9.497304 9.497305-10.423397 10.42442-11.270695 11.270695-12.037151 12.037151-12.723789 12.723789-13.33061 13.33061-13.857612 13.857612-14.303774 14.303774-14.671141 14.671141-14.957667 14.957667-15.164375 15.164375-15.291264 15.291264-15.338337 15.338337-15.305591 15.305591-15.192003 15.192003-14.998599 14.998599-14.7264 14.7264-14.372335 14.372335-13.939477 13.939477-13.426801 13.426801-12.834306 12.834306-12.160971 12.160971-11.407818 11.407818-10.574846 10.574846-9.662057 9.662057-8.66945 8.66945-7.596002 7.596002-6.443759 6.443759-5.210675 5.210675-3.897774 3.897774c-4.02671 4.025687-6.601348 8.532327-8.214079 14.017248-1.39579 4.748141-1.607614 9.695826-1.607614 14.614859 0 6.101975 0.836041 12.32163 2.838652 18.101264 0.984421 2.841721 2.205225 5.722328 4.364401 7.881504l1.010003 1.010003 1.360997 1.360997 1.701758 1.701759 2.031263 2.031262 2.353604 2.353605 2.66469 2.664689 2.966564 2.966565 3.260254 3.260253 3.542686 3.542686 3.815909 3.815909 4.078898 4.079922 4.333702 4.333702 4.578272 4.578272 4.812609 4.812609 5.037737 5.037736 5.253654 5.253654 5.460361 5.460362 5.655814 5.655813 5.843078 5.843079 6.020111 6.02011 6.187932 6.187933 6.346545 6.346545 6.494925 6.494924 6.63307 6.633071 6.763031 6.763031 6.882758 6.882757 6.992251 6.992251 7.093558 7.093559 7.18361 7.183609 7.264451 7.264451 7.336082 7.336082 7.398504 7.398504 7.450692 7.450692 7.493671 7.493672 7.526417 7.526417 7.549953 7.549953 7.56428 7.564279 7.568373 7.568373 7.563256 7.563256 7.548929 7.54893 7.524371 7.52437 7.489578 7.489578 7.446599 7.4466 7.393387 7.393387 7.329943 7.329942 7.258311 7.258311 7.175423 7.175423 7.084349 7.084349 6.983041 6.983042 6.871501 6.871501 6.751774 6.751774 6.621815 6.621814 6.481621 6.481622 6.332219 6.332219 6.173606 6.173606 6.004761 6.004761 5.826706 5.826705 5.638417 5.638417 5.441942 5.441943 5.235235 5.235234 5.018293 5.018294 4.792143 4.792143 4.556783 4.556782 4.311189 4.311189 4.056385 4.055363 3.79135 3.791349 3.517103 3.518127 3.233648 3.233647 2.939959 2.939959 2.63706 2.63706 2.323928 2.323929 2.00261 2.00261 1.670036 1.670036 1.329275 1.329274 0.978281 0.978281 0.618076 0.618077 0.251734 0.251733c12.520151 12.520151 31.299867 12.520151 43.821041 0 12.522198-12.520151 12.520151-31.299867 0-43.822064 0.00307-0.001023-375.615796-381.880477-375.615796-381.911177z" fill="#ffffff" p-id="3110"></path></svg>