<?xml version="1.0" encoding="utf-8"?>
<!-- Generator: Adobe Illustrator 22.0.0, SVG Export Plug-In . SVG Version: 6.00 Build 0)  -->
<svg version="1.1" id="图层_1" xmlns="http://www.w3.org/2000/svg" xmlns:xlink="http://www.w3.org/1999/xlink" x="0px" y="0px"
	 viewBox="0 0 200 200" style="enable-background:new 0 0 200 200;" xml:space="preserve">
<path d="M69.7,100l73.4-74.6c2.4-2.4,2.4-6.1,0-8.6c-2.4-2.4-6.1-2.4-8.6,0l-0.2,0.2l-0.4,0.4l-0.7,0.7l-1,1l-1.2,1.2l-1.4,1.4
	l-1.7,1.7l-1.9,1.9l-2,2l-2.2,2.2l-2.4,2.4l-2.5,2.5l-2.6,2.6l-2.7,2.7l-2.8,2.8l-2.9,2.9l-2.9,2.9l-3,3l-3,3l-3,3l-3,3l-3,3
	l-2.9,2.9L82.4,69l-2.8,2.8l-2.7,2.7l-2.6,2.6l-2.5,2.5L69.4,82l-2.2,2.2l-2.1,2.1l-1.9,1.9l-1.7,1.7L60,91.4l-1.3,1.3l-1,1L57,94.4
	c-0.8,0.8-1.3,1.7-1.6,2.7c-0.3,0.9-0.3,1.9-0.3,2.9c0,1.2,0.2,2.4,0.6,3.5c0.2,0.6,0.4,1.1,0.9,1.5l0.2,0.2l0.3,0.3l0.3,0.3
	l0.4,0.4l0.5,0.5l0.5,0.5l0.6,0.6l0.6,0.6l0.7,0.7l0.7,0.7l0.8,0.8l0.8,0.8l0.9,0.9l0.9,0.9l1,1l1,1l1.1,1.1l1.1,1.1l1.1,1.1
	l1.2,1.2l1.2,1.2l1.2,1.2l1.3,1.3l1.3,1.3l1.3,1.3l1.3,1.3l1.4,1.4l1.4,1.4l1.4,1.4l1.4,1.4l1.4,1.4l1.4,1.4l1.5,1.5l1.5,1.5
	l1.5,1.5l1.5,1.5l1.5,1.5l1.5,1.5l1.5,1.5l1.5,1.5l1.5,1.5l1.5,1.5l1.5,1.5l1.4,1.4l1.4,1.4l1.4,1.4l1.4,1.4l1.4,1.4l1.4,1.4
	l1.3,1.3l1.3,1.3l1.3,1.3l1.3,1.3l1.2,1.2l1.2,1.2l1.2,1.2l1.1,1.1l1.1,1.1l1.1,1.1l1,1l1,1l0.9,0.9l0.9,0.9l0.8,0.8l0.8,0.8
	l0.7,0.7l0.7,0.7l0.6,0.6l0.6,0.6l0.5,0.5l0.5,0.5l0.4,0.4l0.3,0.3l0.3,0.3l0.2,0.2l0.1,0.1l0,0c2.4,2.4,6.1,2.4,8.6,0
	c2.4-2.4,2.4-6.1,0-8.6C143.1,174.6,69.7,100,69.7,100L69.7,100z"/>
</svg>
