<?xml version="1.0" encoding="utf-8"?>
<!-- Generator: Adobe Illustrator 22.0.0, SVG Export Plug-In . SVG Version: 6.00 Build 0)  -->
<svg version="1.1" id="图层_1" xmlns="http://www.w3.org/2000/svg" xmlns:xlink="http://www.w3.org/1999/xlink" x="0px" y="0px"
	 viewBox="0 0 200 200" style="enable-background:new 0 0 200 200;" xml:space="preserve">
<path d="M155.6,168H44.4c-9.3-0.3-16.6-8-16.4-17.3V55.3c-0.2-9.3,7.1-17,16.4-17.3h53.2c2.2,0,4,1.8,4,4c0,2.2-1.8,4-4,4H44.4
	c-4.9,0.3-8.6,4.4-8.4,9.3v95.4c-0.2,4.9,3.5,9,8.4,9.3h111.2c4.9-0.3,8.6-4.4,8.4-9.3V103c0-2.2,1.8-4,4-4c2.2,0,4,1.8,4,4v47.7
	C172.2,160,164.9,167.7,155.6,168z"/>
<path d="M166.2,51.8l-24.9-19c-1.8-1.3-4.2-0.9-5.5,0.8c-1.3,1.8-1,4.3,0.8,5.6c0,0,0,0,0,0L153.1,52c-15-1-32,6.5-47.6,20.8
	s-26.4,32.9-28.7,49.3c-0.3,2.1,1.1,4,3.2,4.4h0.6c2,0,3.7-1.5,4-3.4c2.1-14.4,12-31.4,26.2-44.5c14.8-13.7,30.9-20.4,44.2-18.4
	L142,78c-1.3,1.8-1,4.3,0.8,5.6c0,0,0,0,0,0c1.8,1.3,4.2,0.9,5.5-0.8L167,57.4C168.3,55.6,167.9,53.1,166.2,51.8L166.2,51.8z"/>
</svg>
