<?xml version="1.0" encoding="utf-8"?>
<!-- Generator: Adobe Illustrator 22.0.0, SVG Export Plug-In . SVG Version: 6.00 Build 0)  -->
<svg version="1.1" id="图层_1" xmlns="http://www.w3.org/2000/svg" xmlns:xlink="http://www.w3.org/1999/xlink" x="0px" y="0px"
	 viewBox="0 0 200 200" style="enable-background:new 0 0 200 200;" xml:space="preserve">
<style type="text/css">
	.st0{fill:#FE5B69;}
</style>
<path class="st0" d="M100,12.7c-48.1,0-87.3,39.2-87.3,87.3c0,48.1,39.2,87.3,87.3,87.3c13.5,0,26.3-3.1,37.7-8.6l-7.6-37.9H93.3
	c-7.1,0-11.6-6.2-12.8-11.9l-7.6-39.4c-0.7-3.4,0-7,1.9-10c1.9-3,4.9-5,8.4-5.7c7.2-1.5,14.2,3.1,15.7,10.3l6,31.6h33.9
	c4.9,0,9,3.6,9.6,8.5l8.1,42.3c18.8-16,30.8-39.9,30.8-66.5C187.3,51.9,148.1,12.7,100,12.7L100,12.7z M89.9,153.5h24.2
	c2.2,0,4,1.8,4,4c0,2.2-1.8,4-4,4H89.9c-13.3,0-24.5-9-27.4-22c-0.8-3.9-7.4-37.7-7.5-38c-0.2-1,0-2.1,0.6-3
	c0.6-0.9,1.5-1.5,2.5-1.7c0.2,0,0.5-0.1,0.8-0.1c1.9,0,3.5,1.4,3.9,3.2l0.2,1.2c5.4,27.5,6.9,35.1,7.2,36.6
	C72.3,147,80.4,153.5,89.9,153.5L89.9,153.5z M84.3,67.8c-7.7,0-14-6.3-14-14c0-7.7,6.3-14,14-14s14,6.3,14,14
	C98.3,61.5,92.1,67.8,84.3,67.8z"/>
</svg>
