<?xml version="1.0" standalone="no"?><!DOCTYPE svg PUBLIC "-//W3C//DTD SVG 1.1//EN" "http://www.w3.org/Graphics/SVG/1.1/DTD/svg11.dtd"><svg t="1526572683351" class="icon" style="" viewBox="0 0 1024 1024" version="1.1" xmlns="http://www.w3.org/2000/svg" p-id="3806" xmlns:xlink="http://www.w3.org/1999/xlink" width="200" height="200"><defs><style type="text/css"></style></defs><path d="M512 950.848q-14.848 0-25.152-10.272L130.272 596.576q-5.728-4.576-15.712-14.848t-31.712-37.44-38.848-55.712-30.56-69.152T0 340.576Q0 214.848 72.576 144t200.576-70.848q35.424 0 72.288 12.288t68.576 33.152 54.56 39.136T512 196.576q20.576-20.576 43.424-38.848t54.56-39.136 68.576-33.152 72.288-12.288q128 0 200.576 70.848T1024 340.576q0 126.272-130.848 257.152L537.152 940.576q-10.272 10.272-25.152 10.272z" p-id="3807"></path></svg>