<?xml version="1.0" standalone="no"?><!DOCTYPE svg PUBLIC "-//W3C//DTD SVG 1.1//EN" "http://www.w3.org/Graphics/SVG/1.1/DTD/svg11.dtd"><svg t="1526522488042" class="icon" style="" viewBox="0 0 1024 1024" version="1.1" xmlns="http://www.w3.org/2000/svg" p-id="6894" xmlns:xlink="http://www.w3.org/1999/xlink" width="200" height="200"><defs><style type="text/css"></style></defs><path d="M519.797781 911.692707c0-5.330608-2.665304-7.994888-7.993865-7.994888-19.652394 0-36.556545-7.077442-50.711429-21.234374-14.155908-14.154884-21.234374-31.058011-21.234374-50.709382 0-5.32856-2.665304-7.994888-7.992841-7.994888-5.329584 0-7.993864 2.666328-7.993864 7.994888 0 24.314372 8.576484 45.048042 25.729451 62.20101 17.153991 17.155015 37.887661 25.732523 62.203057 25.732523 5.329584-0.001024 7.993864-2.667352 7.993865-7.994889zM187.05356 767.801101h649.498665C747.953135 667.878308 703.654614 529.320381 703.654614 352.123224c0-16.98709-3.99642-34.47386-11.989261-52.459287-7.994888-17.986451-19.485492-35.139418-34.47386-51.46095-14.990416-16.320508-35.222357-29.726895-60.701968-40.218138-25.480635-10.492267-53.709512-15.738912-84.684585-15.737889-30.97712 0-59.204974 5.245622-84.685609 15.737889-25.480635 10.491243-45.714624 23.89763-60.702991 40.218138-14.988368 16.320508-26.478972 33.474499-34.472836 51.46095-7.993864 17.985427-11.990285 35.472197-11.990285 52.459287-0.002048 177.197157-44.301593 315.755083-132.899659 415.677877z m740.427209 0c0 17.320893-6.326897 32.309261-18.983764 44.967151-12.655843 12.656867-27.646258 18.984788-44.966127 18.984788H639.704723c0 35.305296-12.489965 65.449957-37.47092 90.429886s-55.125615 37.471943-90.428863 37.471944c-35.307344 0-65.449957-12.490989-90.430911-37.471944-24.97993-24.97993-37.470919-55.124591-37.470919-90.429886H160.074907c-17.319869 0-32.308237-6.327921-44.965103-18.984788-12.656867-12.657891-18.985812-27.646258-18.985812-44.967151 16.654311-13.989007 31.808556-28.642548 45.464784-43.965743 13.656228-15.321147 27.812136-35.222357 42.466701-59.704654 14.655589-24.48025 27.063639-50.877307 37.222103-79.189123 10.158464-28.310792 18.485107-62.617751 24.980954-102.920876 6.493799-40.301077 9.742746-83.601261 9.742746-129.898505 0-50.62849 19.484468-97.675254 58.454429-141.14234 38.970985-43.467086 90.098132-69.862095 153.381441-79.188099-2.66428-6.328945-3.99642-12.823768-3.99642-19.485492 0-13.322425 4.661978-24.648175 13.989007-33.973156 9.326004-9.327028 20.650731-13.991055 33.975203-13.991055s24.647151 4.664026 33.97418 13.991055c9.323957 9.324981 13.989007 20.650731 13.989007 33.973156 0 6.661724-1.335212 13.157571-3.998468 19.485492 63.286381 9.326004 114.412504 35.721014 153.382464 79.188099 38.972009 43.467086 58.455453 90.51385 58.455454 141.14234 0 46.297243 3.246899 89.597427 9.742746 129.898505 6.493799 40.303125 14.821466 74.610084 24.97993 102.920876 10.159488 28.311816 22.566514 54.708873 37.222103 79.189123 14.654565 24.481274 28.812521 44.383508 42.467725 59.704654 13.65418 15.324219 28.808425 29.976735 45.460688 43.965743z" p-id="6895" fill="#ffffff"></path></svg>