<?xml version="1.0" encoding="utf-8"?>
<!-- Generator: Adobe Illustrator 22.0.0, SVG Export Plug-In . SVG Version: 6.00 Build 0)  -->
<svg version="1.1" id="图层_1" xmlns="http://www.w3.org/2000/svg" xmlns:xlink="http://www.w3.org/1999/xlink" x="0px" y="0px"
	 viewBox="0 0 200 200" style="enable-background:new 0 0 200 200;" xml:space="preserve">
<style type="text/css">
	.st0{fill:#73716C;}
</style>
<path class="st0" d="M100,77.1c11.6,0,21-9.4,21-21s-9.4-21-21-21s-21,9.4-21,21S88.4,77.1,100,77.1z M100,45c6.1,0,11,4.9,11,11
	s-4.9,11-11,11s-11-4.9-11-11S93.9,45,100,45z M121,144.1c0-11.6-9.4-21-21-21s-21,9.4-21,21c0,11.6,9.4,21,21,21
	S121,155.7,121,144.1z M89,144.1c0-6.1,4.9-11,11-11s11,4.9,11,11s-4.9,11-11,11S89,150.2,89,144.1z M143.9,120.7
	c11.6,0,21-9.4,21-21s-9.4-21-21-21c-11.6,0-21,9.4-21,21C122.9,111.3,132.3,120.7,143.9,120.7z M143.9,88.6c6.1,0,11,4.9,11,11
	s-4.9,11-11,11s-11-4.9-11-11C132.9,93.6,137.9,88.6,143.9,88.6z M55.9,79.5c-11.6,0-21,9.4-21,21s9.4,21,21,21s21-9.4,21-21
	S67.5,79.5,55.9,79.5z M55.9,111.6c-6.1,0-11-4.9-11-11c0-6.1,4.9-11,11-11s11,4.9,11,11C66.9,106.6,62,111.6,55.9,111.6z"/>
<path class="st0" d="M185.4,182.2h-43.7c8.6-4.4,16.5-10.1,23.4-17c8.5-8.5,15.1-18.3,19.7-29.3c4.8-11.4,7.2-23.4,7.2-35.9
	s-2.4-24.5-7.2-35.9c-4.6-11-11.3-20.8-19.7-29.3s-18.3-15.1-29.3-19.7c-11.4-4.8-23.4-7.3-35.9-7.3s-24.5,2.4-35.9,7.2
	c-11,4.6-20.8,11.3-29.3,19.7S19.7,53.1,15.1,64.1C10.3,75.5,7.8,87.6,7.8,100s2.4,24.5,7.2,35.9c4.6,11,11.3,20.8,19.7,29.3
	s18.3,15.1,29.3,19.7c11.4,4.8,23.4,7.2,35.9,7.2c0.5,0,0.9,0,1.4,0c0.1,0,0.2,0,0.3,0h83.7c2.8,0,5-2.2,5-5
	S188.2,182.2,185.4,182.2z M41.9,158.1c-7.6-7.6-13.5-16.3-17.6-26.1c-4.3-10.1-6.5-20.9-6.5-32s2.2-21.9,6.5-32
	c4.1-9.8,10.1-18.6,17.6-26.1S58.2,28.4,68,24.3c10.1-4.3,20.9-6.5,32-6.5s21.9,2.2,32,6.5c9.8,4.1,18.6,10.1,26.1,17.6
	s13.5,16.3,17.6,26.1c4.3,10.1,6.5,20.9,6.5,32s-2.2,21.9-6.5,32c-4.1,9.8-10.1,18.6-17.6,26.1s-16.3,13.5-26.1,17.6
	c-10.1,4.3-20.9,6.5-32,6.5s-21.9-2.2-32-6.5C58.2,171.6,49.4,165.7,41.9,158.1z"/>
</svg>
