<?xml version="1.0" encoding="utf-8"?>
<!-- Generator: Adobe Illustrator 22.0.0, SVG Export Plug-In . SVG Version: 6.00 Build 0)  -->
<svg version="1.1" id="图层_1" xmlns="http://www.w3.org/2000/svg" xmlns:xlink="http://www.w3.org/1999/xlink" x="0px" y="0px"
	 viewBox="0 0 200 200" style="enable-background:new 0 0 200 200;" xml:space="preserve">
<style type="text/css">
	.st0{fill:#FE5B69;}
</style>
<path class="st0" d="M145.3,81.1c-10.4,0-18.9,8.5-18.9,18.9c0,10.5,8.5,18.9,18.9,18.9c10.4,0,18.9-8.5,18.9-18.9
	C164.2,89.6,155.8,81.1,145.3,81.1 M100,126.4c-10.4,0-18.9,8.5-18.9,18.9c0,10.4,8.5,18.9,18.9,18.9s18.9-8.5,18.9-18.9
	C118.9,134.9,110.4,126.4,100,126.4 M92.4,100c0,4.2,3.4,7.5,7.5,7.5c4.2,0,7.6-3.3,7.6-7.5c0-4.1-3.4-7.5-7.6-7.5
	C95.8,92.5,92.4,95.9,92.4,100 M100,35.8c-10.4,0-18.9,8.4-18.9,18.9s8.5,18.9,18.9,18.9s18.9-8.5,18.9-18.9S110.4,35.8,100,35.8
	 M54.6,81.1c-10.4,0-18.9,8.5-18.9,18.9c0,10.5,8.5,18.9,18.9,18.9s18.9-8.5,18.9-18.9C73.5,89.6,65,81.1,54.6,81.1 M148.9,171.9h20
	c3.6,0,6.6,3.3,6.6,7.5s-3,7.5-6.6,7.5h-66.2c-0.3,0-0.6,0-0.8-0.1c-0.6,0-1.2,0.1-1.9,0.1c-48,0-87-38.9-87-87S52,13,100,13
	s87,38.9,87,87C187,129.9,171.9,156.3,148.9,171.9L148.9,171.9z"/>
</svg>
