<?xml version="1.0" standalone="no"?><!DOCTYPE svg PUBLIC "-//W3C//DTD SVG 1.1//EN" "http://www.w3.org/Graphics/SVG/1.1/DTD/svg11.dtd"><svg t="1526225369233" class="icon" style="" viewBox="0 0 1024 1024" version="1.1" xmlns="http://www.w3.org/2000/svg" p-id="1550" xmlns:xlink="http://www.w3.org/1999/xlink" width="200" height="200"><defs><style type="text/css"></style></defs><path d="M928 544H96c-17.664 0-32-14.336-32-32s14.336-32 32-32h832c17.696 0 32 14.336 32 32s-14.304 32-32 32z m-96 384H640c-17.696 0-32-14.304-32-32s14.304-32 32-32h192c17.664 0 32-14.336 32-32V672c0-17.696 14.304-32 32-32s32 14.304 32 32v160c0 52.928-43.072 96-96 96z m-480 0H192c-52.928 0-96-43.072-96-96V672c0-17.696 14.336-32 32-32s32 14.304 32 32v160c0 17.664 14.368 32 32 32h160c17.664 0 32 14.304 32 32s-14.336 32-32 32zM128 384c-17.664 0-32-14.336-32-32V192c0-52.928 43.072-96 96-96h160c17.664 0 32 14.336 32 32s-14.336 32-32 32H192c-17.632 0-32 14.368-32 32v160c0 17.664-14.336 32-32 32z m768 0c-17.696 0-32-14.336-32-32V192c0-17.632-14.336-32-32-32H640c-17.696 0-32-14.336-32-32s14.304-32 32-32h192c52.928 0 96 43.072 96 96v160c0 17.664-14.304 32-32 32z" fill="#333333" p-id="1551"></path></svg>