<?xml version="1.0" standalone="no"?><!DOCTYPE svg PUBLIC "-//W3C//DTD SVG 1.1//EN" "http://www.w3.org/Graphics/SVG/1.1/DTD/svg11.dtd"><svg t="1526523030718" class="icon" style="" viewBox="0 0 1024 1024" version="1.1" xmlns="http://www.w3.org/2000/svg" p-id="7627" xmlns:xlink="http://www.w3.org/1999/xlink" width="200" height="200"><defs><style type="text/css"></style></defs><path d="M512 303.104c113.664 0 206.848 93.184 206.848 206.848S624.64 716.8 512 716.8s-206.848-93.184-206.848-206.848S398.336 303.104 512 303.104z m107.52-135.168c10.24 3.072 19.456 6.144 29.696 10.24s19.456 8.192 28.672 13.312l41.984-41.984c13.312-13.312 33.792-13.312 47.104 0h1.024l105.472 104.448c13.312 13.312 13.312 34.816 0 47.104l-41.984 41.984c5.12 9.216 9.216 18.432 13.312 28.672 4.096 9.216 7.168 19.456 10.24 29.696h59.392c18.432 0 33.792 15.36 33.792 33.792V583.68c0 18.432-15.36 33.792-33.792 33.792h-59.392c-3.072 10.24-7.168 19.456-10.24 29.696-4.096 10.24-8.192 19.456-13.312 28.672l41.984 41.984c13.312 13.312 13.312 33.792 0 47.104L766.976 869.376c-13.312 13.312-33.792 13.312-47.104 0l-41.984-41.984c-9.216 5.12-18.432 9.216-28.672 13.312h-2.048c-9.216 4.096-18.432 7.168-27.648 10.24v59.392c0 18.432-15.36 33.792-33.792 33.792H437.248c-18.432 0-33.792-15.36-33.792-33.792v-59.392c-10.24-3.072-19.456-7.168-29.696-11.264-9.216-4.096-19.456-8.192-28.672-13.312l-40.96 43.008c-13.312 13.312-33.792 13.312-47.104 0v-1.024L152.576 764.928c-13.312-13.312-13.312-33.792 0-47.104L194.56 675.84c-5.12-9.216-9.216-18.432-13.312-28.672-4.096-9.216-7.168-19.456-11.264-29.696h-59.392c-18.432 0-33.792-15.36-33.792-33.792V435.2c0-18.432 15.36-33.792 33.792-33.792h59.392c3.072-10.24 7.168-19.456 10.24-29.696 4.096-10.24 8.192-19.456 13.312-28.672l-41.984-41.984c-13.312-13.312-13.312-33.792 0-47.104L256 149.504c13.312-13.312 33.792-13.312 47.104 0l41.984 41.984c18.432-9.216 37.888-17.408 58.368-23.552v-59.392c0-18.432 15.36-33.792 33.792-33.792h149.504c18.432 0 33.792 15.36 33.792 33.792v1.024l-1.024 58.368z m4.096 71.68c-14.336-6.144-28.672-10.24-43.008-14.336-15.36-3.072-27.648-16.384-27.648-32.768v-51.2h-81.92v51.2c0 15.36-10.24 28.672-25.6 32.768-30.72 7.168-60.416 19.456-87.04 35.84-13.312 8.192-29.696 6.144-40.96-5.12l-35.84-36.864-58.368 58.368 34.816 34.816c12.288 10.24 14.336 28.672 6.144 41.984-8.192 13.312-15.36 27.648-21.504 41.984-6.144 14.336-10.24 28.672-14.336 43.008-3.072 15.36-16.384 27.648-32.768 27.648h-51.2v81.92h51.2c15.36 0 28.672 10.24 32.768 25.6 4.096 15.36 8.192 30.72 14.336 45.056s13.312 28.672 21.504 41.984c8.192 13.312 6.144 29.696-5.12 40.96l-35.84 35.84 58.368 58.368 34.816-34.816c10.24-12.288 28.672-14.336 41.984-6.144 13.312 8.192 27.648 15.36 41.984 21.504 13.312 5.12 28.672 10.24 43.008 14.336 15.36 3.072 27.648 16.384 27.648 32.768v51.2h81.92v-51.2c0-15.36 10.24-28.672 25.6-32.768 15.36-3.072 29.696-8.192 43.008-13.312l2.048-1.024c14.336-6.144 28.672-13.312 41.984-21.504 13.312-8.192 29.696-6.144 40.96 5.12l35.84 35.84 58.368-58.368-34.816-34.816c-12.288-10.24-14.336-28.672-6.144-41.984 8.192-13.312 15.36-27.648 21.504-41.984 5.12-13.312 10.24-28.672 14.336-43.008 3.072-15.36 16.384-27.648 32.768-27.648h51.2v-81.92h-51.2c-15.36 0-28.672-10.24-32.768-25.6-4.096-15.36-8.192-30.72-14.336-45.056-6.144-14.336-13.312-28.672-21.504-40.96-9.216-13.312-7.168-30.72 4.096-41.984l35.84-35.84-58.368-58.368-34.816 34.816c-10.24 11.264-28.672 14.336-41.984 6.144-12.288-7.168-26.624-14.336-40.96-20.48zM512 343.04c-92.16 0-165.888 74.752-165.888 166.912C345.088 601.088 420.864 675.84 512 675.84s166.912-75.776 166.912-166.912c-1.024-90.112-75.776-165.888-166.912-165.888z" p-id="7628" fill="#ffffff"></path></svg>