<?xml version="1.0" standalone="no"?><!DOCTYPE svg PUBLIC "-//W3C//DTD SVG 1.1//EN" "http://www.w3.org/Graphics/SVG/1.1/DTD/svg11.dtd"><svg t="1526538000190" class="icon" style="" viewBox="0 0 1024 1024" version="1.1" xmlns="http://www.w3.org/2000/svg" p-id="2262" xmlns:xlink="http://www.w3.org/1999/xlink" width="200" height="200"><defs><style type="text/css"></style></defs><path d="M796.672 860.16H227.328A86.4256 86.4256 0 0 1 143.36 771.6864V283.0336a86.4256 86.4256 0 0 1 83.968-88.4736h272.1792a20.48 20.48 0 0 1 0 40.96H227.328A45.4656 45.4656 0 0 0 184.32 283.0336v488.6528A45.4656 45.4656 0 0 0 227.328 819.2h569.344a45.4656 45.4656 0 0 0 43.008-47.5136V527.36a20.48 20.48 0 1 1 40.96 0v244.3264A86.4256 86.4256 0 0 1 796.672 860.16z" p-id="2263" fill="#ffffff"></path><path d="M850.7392 265.0112L723.1488 167.936a20.48 20.48 0 0 0-28.2624 4.3008 20.48 20.48 0 0 0 4.096 28.8768L783.7696 266.24c-76.5952-4.9152-163.84 33.1776-243.5072 106.496s-134.9632 168.3456-147.0464 252.3136a20.48 20.48 0 0 0 16.384 22.7328h2.8672a20.48 20.48 0 0 0 20.48-17.6128c10.6496-73.728 61.44-160.9728 134.144-227.7376 75.776-70.0416 158.3104-104.448 226.5088-94.4128l-66.3552 91.3408a20.48 20.48 0 0 0 4.096 28.8768 20.48 20.48 0 0 0 28.2624-4.3008l95.232-130.2528a20.48 20.48 0 0 0-4.096-28.672z" p-id="2264" fill="#ffffff"></path></svg>