<?xml version="1.0" encoding="utf-8"?>
<!-- Generator: Adobe Illustrator 22.0.0, SVG Export Plug-In . SVG Version: 6.00 Build 0)  -->
<svg version="1.1" id="图层_1" xmlns="http://www.w3.org/2000/svg" xmlns:xlink="http://www.w3.org/1999/xlink" x="0px" y="0px"
	 viewBox="0 0 200 200" style="enable-background:new 0 0 200 200;" xml:space="preserve">
<style type="text/css">
	.st0{display:none;fill:none;stroke:#AD3131;stroke-miterlimit:10;}
	.st1{fill:#FE5B69;}
	.st2{fill:#FFFFFF;}
</style>
<path class="st0" d="M100,179.2c-41.3,0-75-32.5-75-72.9c0-19.6,7.9-37.5,21.3-50.8c0-0.4-0.4-0.8-0.4-1.3V25c0-2.1,1.2-3.8,3.3-4.2
	c0,0,0,0,0.4,0c0.4,0,0.4,0,0.4,0s0,0,0.4,0c0.8,0,1.7,0,2.5,0.4l24.2,15l0.4,0.4c7.1-2.1,14.6-3.3,22.5-3.3c41.3,0,75,32.5,75,72.9
	S141.3,179.2,100,179.2z"/>
<path class="st1" d="M100,41.7c-7.5,0-15,1.3-21.7,3.8c0,0-4.2,0.8-5.8-0.4L54.2,34.2v20c0,1.7,0.4,4.6,0.4,4.6
	c-12.9,12.1-21.3,28.7-21.3,47.5c0,35.8,30,64.6,66.7,64.6s66.7-28.8,66.7-64.6C166.7,70.4,136.7,41.7,100,41.7z"/>
<path class="st2" d="M133.3,104.2c-2.5,0-4.2-1.7-4.2-4.2V87.5c0-2.5,1.7-4.2,4.2-4.2c2.5,0,4.2,1.7,4.2,4.2V100
	C137.5,102.5,135.8,104.2,133.3,104.2z"/>
<path class="st2" d="M104.2,104.2c-2.5,0-4.2-1.7-4.2-4.2v-4.2v-4.2v-4.2c0-2.5,1.7-4.2,4.2-4.2c2.5,0,4.2,1.7,4.2,4.2v4.2v4.2v4.2
	C108.3,102.5,106.7,104.2,104.2,104.2z"/>
</svg>
