<?xml version="1.0" encoding="utf-8"?>
<!-- Generator: Adobe Illustrator 22.0.0, SVG Export Plug-In . SVG Version: 6.00 Build 0)  -->
<svg version="1.1" id="图层_1" xmlns="http://www.w3.org/2000/svg" xmlns:xlink="http://www.w3.org/1999/xlink" x="0px" y="0px"
	 viewBox="0 0 200 200" style="enable-background:new 0 0 200 200;" xml:space="preserve">
<style type="text/css">
	.st0{fill:#73716C;}
</style>
<path class="st0" d="M100,33.3c-7.9,0-15.4,1.3-22.5,3.3l-0.4-0.4l-24.2-15c-0.8-0.4-1.7-0.4-2.5-0.4c-0.4,0-0.4,0-0.4,0s0,0-0.4,0
	c-0.4,0-0.4,0-0.4,0c-2.1,0.4-3.3,2.1-3.3,4.2v29.2c0,0.4,0.4,0.8,0.4,1.3C32.9,68.8,25,86.7,25,106.3c0,40.4,33.8,72.9,75,72.9
	s75-32.5,75-72.9S141.3,33.3,100,33.3z M100,170.8c-36.7,0-66.7-28.8-66.7-64.6c0-18.8,8.3-35.4,21.3-47.5c0,0-0.4-2.9-0.4-4.6v-20
	L72.5,45c1.7,1.3,5.8,0.4,5.8,0.4c6.7-2.5,14.2-3.8,21.7-3.8c36.7,0,66.7,28.8,66.7,64.6S136.7,170.8,100,170.8z"/>
<path class="st0" d="M133.3,104.2c-2.5,0-4.2-1.7-4.2-4.2V87.5c0-2.5,1.7-4.2,4.2-4.2c2.5,0,4.2,1.7,4.2,4.2V100
	C137.5,102.5,135.8,104.2,133.3,104.2z"/>
<path class="st0" d="M104.2,104.2c-2.5,0-4.2-1.7-4.2-4.2v-4.2v-4.2v-4.2c0-2.5,1.7-4.2,4.2-4.2c2.5,0,4.2,1.7,4.2,4.2v4.2v4.2v4.2
	C108.3,102.5,106.7,104.2,104.2,104.2z"/>
</svg>
