<?xml version="1.0" standalone="no"?><!DOCTYPE svg PUBLIC "-//W3C//DTD SVG 1.1//EN" "http://www.w3.org/Graphics/SVG/1.1/DTD/svg11.dtd"><svg t="1526721864109" class="icon" style="" viewBox="0 0 1024 1024" version="1.1" xmlns="http://www.w3.org/2000/svg" p-id="2245" xmlns:xlink="http://www.w3.org/1999/xlink" width="200" height="200"><defs><style type="text/css"></style></defs><path d="M910.222222 910.222222C896.995556 983.665778 859.278222 1024 796.444444 1024L398.222222 1024C335.388444 1024 284.444444 973.056 284.444444 910.222222L284.444444 512C284.444444 512 278.072889 480.995556 285.696 442.624 288.028444 421.603556 295.850667 402.432 308.024889 386.474667 309.048889 384.853333 309.674667 383.232 310.784 381.639111 312.035556 380.586667 313.372444 379.505778 314.652444 378.453333 322.019556 370.432 330.467556 363.576889 339.825778 357.916444 382.634667 323.953778 429.824 288.654222 455.566222 245.76 514.332444 147.825778 540.444444 85.333333 540.444444 85.333333 555.406222 25.429333 578.645333 0 625.777778 0 672.910222 0 711.111111 38.200889 711.111111 85.333333 711.111111 85.333333 714.524444 210.460444 691.569778 325.205333 690.488889 330.666667 689.066667 335.928889 687.815111 341.333333L910.222222 341.333333C973.056 341.333333 1024 392.277333 1024 455.111111L910.222222 910.222222ZM870.826667 398.222222 613.916444 398.222222C623.132444 365.312 635.591111 317.895111 642.446222 278.983111 656.270222 200.647111 654.222222 115.171556 654.222222 115.171556 654.222222 82.972444 642.161778 60.700444 628.679111 56.888889 597.418667 48.014222 585.642667 70.371556 576.654222 111.274667 576.654222 111.274667 560.753778 157.383111 526.165333 224.739556 508.131556 259.896889 417.024 370.801778 380.757333 402.403556 379.420444 402.659556 378.311111 403.057778 377.088 403.370667 374.357333 402.545778 372.280889 402.944 371.057778 404.935111 344.945778 413.923556 342.499556 435.882667 341.333333 493.027556L341.333333 872.305778C343.978667 964.295111 343.153778 967.111111 437.617778 967.111111L774.570667 967.111111C827.733333 967.111111 855.438222 927.232 870.826667 872.305778L967.111111 464.583111C977.265778 413.155556 938.040889 396.913778 870.826667 398.222222ZM170.666667 1024 56.888889 1024C25.457778 1024 0 998.542222 0 967.111111L0 398.222222C0 366.791111 25.457778 341.333333 56.888889 341.333333L170.666667 341.333333C202.097778 341.333333 227.555556 366.791111 227.555556 398.222222L227.555556 967.111111C227.555556 998.542222 202.097778 1024 170.666667 1024ZM170.666667 426.666667C170.666667 410.965333 157.923556 398.222222 142.222222 398.222222L85.333333 398.222222C69.632 398.222222 56.888889 410.965333 56.888889 426.666667L56.888889 938.666667C56.888889 954.368 69.632 967.111111 85.333333 967.111111L142.222222 967.111111C157.923556 967.111111 170.666667 954.368 170.666667 938.666667L170.666667 426.666667Z" p-id="2246"></path></svg>