<?xml version="1.0" standalone="no"?><!DOCTYPE svg PUBLIC "-//W3C//DTD SVG 1.1//EN" "http://www.w3.org/Graphics/SVG/1.1/DTD/svg11.dtd"><svg t="1526999111004" class="icon" style="" viewBox="0 0 1024 1024" version="1.1" xmlns="http://www.w3.org/2000/svg" p-id="3159" xmlns:xlink="http://www.w3.org/1999/xlink" width="200" height="200"><defs><style type="text/css"></style></defs><path d="M512.014 65.095c-246.428 0-446.927 200.498-446.927 446.912 0 246.413 200.498 446.898 446.927 446.898 69.084 0 134.574-15.764 193.023-43.888l-39.15-194.269H477.501c-36.396 0-59.564-31.659-65.68-61.084l-38.728-201.657c-3.695-17.649-0.247-35.816 9.707-51 9.969-15.243 25.24-25.66 43.033-29.356 36.714-7.664 72.85 15.981 80.472 52.682l30.572 161.898h173.605c25.04 0 46.265 18.618 49.38 43.294l41.482 216.711c96.308-82.065 157.567-204.107 157.567-340.23 0-246.413-200.484-446.911-446.897-446.911z m-51.638 720.84H584.2c11.242 0 20.37 9.142 20.37 20.342 0 11.242-9.128 20.37-20.37 20.37H460.376c-67.925 0-125.605-46.333-140.255-112.694-4.128-19.907-38.003-192.963-38.278-194.368-1.044-5.304 0.057-10.722 3.086-15.23 3.056-4.533 7.664-7.576 12.996-8.635 1.103-0.246 2.58-0.39 4.029-0.39 9.65 0 17.995 6.926 19.864 16.475l1.245 6.345c27.56 140.673 35.282 179.49 36.904 187.285 10.417 47.321 51.725 80.5 100.409 80.5zM431.7 347.15c-39.598 0-71.778-32.207-71.778-71.792 0-39.569 32.18-71.793 71.778-71.793s71.807 32.224 71.807 71.793c0 39.585-32.21 71.792-71.807 71.792z" fill="" p-id="3160" data-spm-anchor-id="a313x.7781069.0.i0"></path></svg>