<?xml version="1.0" standalone="no"?><!DOCTYPE svg PUBLIC "-//W3C//DTD SVG 1.1//EN" "http://www.w3.org/Graphics/SVG/1.1/DTD/svg11.dtd"><svg t="1526999235482" class="icon" style="" viewBox="0 0 1024 1024" version="1.1" xmlns="http://www.w3.org/2000/svg" p-id="5791" xmlns:xlink="http://www.w3.org/1999/xlink" width="200" height="200"><defs><style type="text/css"></style></defs><path d="M489.61536 415.96928c131.75296 16.60928 242.56512-94.19776 225.96096-225.95584-11.32032-89.77408-83.8144-162.26304-173.58336-173.57824C410.23488-0.16896 299.43296 110.62784 316.04224 242.3808c11.31008 89.77408 83.79392 162.26816 173.57312 173.58848zM797.45024 493.568c12.12416-10.56256 117.80608-96.1024 84.66944-151.61344-33.12128-55.51104-129.77664 150.3744-366.23872 159.56992-236.47232-9.19552-333.12256-207.03744-366.24896-151.5264C116.5056 405.50912 219.136 475.25376 234.30144 493.568c15.17056 18.31936 141.31712 77.45536 2.36544 350.92992-203.28448 400.10752 121.58976-36.23424 279.20896-36.23424s455.63904 442.30656 279.20384 36.23424c-120.23808-276.76672-9.74848-340.36736 2.37056-350.92992z" fill="" p-id="5792"></path></svg>